<?xml version="1.0" encoding="UTF-8" standalone="no"?>
<svg width="143px" height="20px" viewBox="0 0 143 20" version="1.1" xmlns="http://www.w3.org/2000/svg" xmlns:xlink="http://www.w3.org/1999/xlink" xmlns:sketch="http://www.bohemiancoding.com/sketch/ns">
    <!-- Generator: Sketch 3.3.2 (12043) - http://www.bohemiancoding.com/sketch -->
    <title>Untitled</title>
    <desc>Created with Sketch.</desc>
    <defs>
        <path id="path-1" d="M0,0.549 L142.194,0.549 L142.194,19 L0,19 L0,0.549 Z"></path>
    </defs>
    <g id="Page-1" stroke="none" stroke-width="1" fill="none" fill-rule="evenodd" sketch:type="MSPage">
        <g id="Vector-Smart-Object" sketch:type="MSLayerGroup">
            <g>
                <path d="M5.0363,16.5895 C6.0643,16.5895 6.6853,16.2265 6.6853,15.4395 L6.6853,15.4095 C6.6853,14.6985 6.1553,14.2605 4.9603,14.2605 L2.2683,14.2605 L2.2683,16.5895 L5.0363,16.5895 Z M4.4163,12.3245 C5.4443,12.3245 6.0953,11.9915 6.0953,11.2055 L6.0953,11.1755 C6.0953,10.4795 5.5503,10.0855 4.5673,10.0855 L2.2683,10.0855 L2.2683,12.3245 L4.4163,12.3245 Z M0.0003,8.0445 L4.9153,8.0445 C6.1253,8.0445 7.0783,8.3775 7.6833,8.9825 C8.1673,9.4655 8.4093,10.0555 8.4093,10.7815 L8.4093,10.8115 C8.4093,12.0065 7.7743,12.6725 7.0183,13.0955 C8.2433,13.5645 8.9993,14.2755 8.9993,15.6965 L8.9993,15.7275 C8.9993,17.6635 7.4263,18.6315 5.0363,18.6315 L0.0003,18.6315 L0.0003,8.0445 Z" id="Fill-1" fill="#b59171" sketch:type="MSShapeGroup"></path>
                <path d="M19.2992,13.3681 L19.2992,13.3371 C19.2992,11.5231 17.9682,10.0101 16.0932,10.0101 C14.2172,10.0101 12.9172,11.4931 12.9172,13.3071 L12.9172,13.3371 C12.9172,15.1531 14.2472,16.6651 16.1232,16.6651 C17.9982,16.6651 19.2992,15.1821 19.2992,13.3681 M10.4822,13.3681 L10.4822,13.3371 C10.4822,10.3281 12.8562,7.8631 16.1232,7.8631 C19.3902,7.8631 21.7342,10.2971 21.7342,13.3071 L21.7342,13.3371 C21.7342,16.3471 19.3592,18.8121 16.0932,18.8121 C12.8262,18.8121 10.4822,16.3771 10.4822,13.3681" id="Fill-3" fill="#b59171" sketch:type="MSShapeGroup"></path>
                <path d="M31.8858,13.3681 L31.8858,13.3371 C31.8858,11.5231 30.5548,10.0101 28.6798,10.0101 C26.8038,10.0101 25.5038,11.4931 25.5038,13.3071 L25.5038,13.3371 C25.5038,15.1531 26.8338,16.6651 28.7098,16.6651 C30.5848,16.6651 31.8858,15.1821 31.8858,13.3681 M23.0688,13.3681 L23.0688,13.3371 C23.0688,10.3281 25.4428,7.8631 28.7098,7.8631 C31.9768,7.8631 34.3208,10.2971 34.3208,13.3071 L34.3208,13.3371 C34.3208,16.3471 31.9458,18.8121 28.6798,18.8121 C25.4128,18.8121 23.0688,16.3771 23.0688,13.3681" id="Fill-5" fill="#b59171" sketch:type="MSShapeGroup"></path>
                <path d="M36.355,8.0442 L38.866,8.0442 L41.649,12.5212 L44.431,8.0442 L46.942,8.0442 L46.942,18.6312 L44.628,18.6312 L44.628,11.7192 L41.649,16.2412 L41.588,16.2412 L38.639,11.7642 L38.639,18.6312 L36.355,18.6312 L36.355,8.0442 Z" id="Fill-7" fill="#b59171" sketch:type="MSShapeGroup"></path>
                <path d="M54.4153,16.5895 C55.4433,16.5895 56.0643,16.2265 56.0643,15.4395 L56.0643,15.4095 C56.0643,14.6985 55.5343,14.2605 54.3393,14.2605 L51.6473,14.2605 L51.6473,16.5895 L54.4153,16.5895 Z M53.7953,12.3245 C54.8243,12.3245 55.4743,11.9915 55.4743,11.2055 L55.4743,11.1755 C55.4743,10.4795 54.9293,10.0855 53.9463,10.0855 L51.6473,10.0855 L51.6473,12.3245 L53.7953,12.3245 Z M49.3793,8.0445 L54.2943,8.0445 C55.5043,8.0445 56.4573,8.3775 57.0623,8.9825 C57.5463,9.4655 57.7883,10.0555 57.7883,10.7815 L57.7883,10.8115 C57.7883,12.0065 57.1533,12.6725 56.3973,13.0955 C57.6223,13.5645 58.3783,14.2755 58.3783,15.6965 L58.3783,15.7275 C58.3783,17.6635 56.8053,18.6315 54.4153,18.6315 L49.3793,18.6315 L49.3793,8.0445 Z" id="Fill-9" fill="#b59171" sketch:type="MSShapeGroup"></path>
                <path d="M68.6979,13.3681 L68.6979,13.3371 C68.6979,11.5231 67.3669,10.0101 65.4919,10.0101 C63.6169,10.0101 62.3159,11.4931 62.3159,13.3071 L62.3159,13.3371 C62.3159,15.1531 63.6469,16.6651 65.5219,16.6651 C67.3969,16.6651 68.6979,15.1821 68.6979,13.3681 M59.8809,13.3681 L59.8809,13.3371 C59.8809,10.3281 62.2549,7.8631 65.5219,7.8631 C68.7889,7.8631 71.1329,10.2971 71.1329,13.3071 L71.1329,13.3371 C71.1329,16.3471 68.7589,18.8121 65.4919,18.8121 C62.2249,18.8121 59.8809,16.3771 59.8809,13.3681" id="Fill-11" fill="#b59171" sketch:type="MSShapeGroup"></path>
                <path d="M75.0958,10.1919 L71.8748,10.1919 L71.8748,8.0439 L80.6458,8.0439 L80.6458,10.1919 L77.4248,10.1919 L77.4248,18.6309 L75.0958,18.6309 L75.0958,10.1919 Z" id="Fill-13" fill="#b59171" sketch:type="MSShapeGroup"></path>
                <g id="Group-17">
                    <mask id="mask-2" sketch:name="Clip 16" fill="white">
                        <use xlink:href="#path-1"></use>
                    </mask>
                    <g id="Clip-16"></g>
                    <path d="M132.9682,7.9151 C131.9412,7.9151 131.1092,8.7471 131.1092,9.7741 C131.1092,10.8011 131.9412,11.6331 132.9682,11.6331 C133.9952,11.6331 134.8272,10.8011 134.8272,9.7741 C134.8272,8.7471 133.9952,7.9151 132.9682,7.9151 L132.9682,7.9151 Z M138.3432,9.7741 C138.3432,6.8101 135.9322,4.3991 132.9682,4.3991 C130.0042,4.3991 127.5932,6.8101 127.5932,9.7741 C127.5932,12.7381 130.0042,15.1501 132.9682,15.1501 C135.9322,15.1501 138.3432,12.7381 138.3432,9.7741 L138.3432,9.7741 Z M142.1932,9.7741 C142.1932,14.8611 138.0552,19.0001 132.9682,19.0001 C127.8812,19.0001 123.7422,14.8611 123.7422,9.7741 C123.7422,4.6871 127.8812,0.5491 132.9682,0.5491 C138.0552,0.5491 142.1932,4.6871 142.1932,9.7741 L142.1932,9.7741 Z M116.8622,7.9961 C117.3302,7.5051 117.7022,7.0331 117.7002,6.1721 C117.6972,5.2151 116.9862,4.5881 115.7122,4.5881 L108.4102,4.5881 L114.6102,10.3771 L116.8622,7.9961 Z M117.5552,13.1011 L123.4662,18.5891 L117.7822,18.5891 L108.3752,9.8561 L108.3752,18.6031 L104.2772,18.6031 L104.2772,0.7361 L108.3062,0.7361 L115.4752,0.7361 C116.9462,0.7361 118.2942,1.0841 119.3442,1.7241 C120.8922,2.6791 121.6552,4.0071 121.8462,5.6871 C122.0442,7.3931 121.6092,8.9251 120.0342,10.4501 L117.5552,13.1011 Z M101.9352,5.7161 C102.1332,7.4221 101.6982,8.9541 100.1232,10.4791 C100.1232,10.4791 98.7152,11.5801 97.2902,11.5801 L89.9182,11.5801 L89.9182,18.6331 L85.8552,18.6331 L85.8552,8.0421 L89.9182,8.0421 L89.9182,8.0461 L95.7012,8.0261 C97.0162,8.0261 97.7912,7.0621 97.7892,6.2011 C97.7862,5.2441 97.0752,4.6171 95.8012,4.6171 L89.7972,4.6171 L85.8642,4.5841 L85.8642,0.7651 L95.5642,0.7651 C97.0352,0.7651 98.3832,1.1141 99.4332,1.7531 C100.9812,2.7091 101.7442,4.0361 101.9352,5.7161 L101.9352,5.7161 Z" id="Fill-15" fill="#b59171" sketch:type="MSShapeGroup" mask="url(#mask-2)"></path>
                </g>
            </g>
        </g>
    </g>
</svg>