<?xml version="1.0" encoding="UTF-8" standalone="no"?>
<svg width="612px" height="613px" viewBox="0 0 612 613" version="1.1" xmlns="http://www.w3.org/2000/svg" xmlns:xlink="http://www.w3.org/1999/xlink" xmlns:sketch="http://www.bohemiancoding.com/sketch/ns">
    <!-- Generator: Sketch 3.3.2 (12043) - http://www.bohemiancoding.com/sketch -->
    <title>uEA05-ruler</title>
    <desc>Created with Sketch.</desc>
    <defs></defs>
    <g id="Page-1" stroke="none" stroke-width="1" fill="none" fill-rule="evenodd" sketch:type="MSPage">
        <g id="uEA05-ruler" sketch:type="MSLayerGroup" transform="translate(306.000000, 306.500000) scale(1, -1) translate(-306.000000, -306.500000) " fill="#000000">
            <path d="M0,0.7 L0,612.7 L159.1,612.7 L159.1,159.8 L612,159.8 L612,0.7 L0,0.7 L0,0.7 Z M586.3,134.7 L542.2,134.7 L542.2,61.3 L516.5,61.3 L516.5,134.7 L471.8,134.7 L471.8,101 L459,101 L459,134.7 L414.3,134.7 L414.3,61.3 L388.6,61.3 L388.6,134.7 L343.9,134.7 L343.9,101 L331,101 L331,134.7 L286.3,134.7 L286.3,61.3 L260.6,61.3 L260.6,134.7 L216,134.7 L216,101 L203.1,101 L203.1,134.7 L158.4,134.7 L158.4,61.3 L132.7,61.3 L132.7,134.7 L59.4,134.7 L59.4,160.4 L132.8,160.4 L132.8,205.1 L96.1,205.1 L96.1,218 L132.8,218 L132.8,262.7 L59.4,262.7 L59.4,288.4 L132.8,288.4 L132.8,333 L96.1,333 L96.1,345.9 L132.8,345.9 L132.8,390.6 L59.4,390.6 L59.4,416.3 L132.8,416.3 L132.8,461 L96.1,461 L96.1,473.9 L132.8,473.9 L132.8,518.6 L59.4,518.6 L59.4,544.3 L132.8,544.3 L132.8,588.4 L24.5,588.4 L24.5,27 L585.7,27 L585.7,134.7 L586.3,134.7 L586.3,134.7 Z" id="Shape" sketch:type="MSShapeGroup"></path>
        </g>
    </g>
</svg>