<?xml version="1.0" encoding="UTF-8" standalone="no"?>
<svg width="290px" height="34px" viewBox="0 0 290 34" version="1.1" xmlns="http://www.w3.org/2000/svg" xmlns:xlink="http://www.w3.org/1999/xlink" xmlns:sketch="http://www.bohemiancoding.com/sketch/ns">
    <!-- Generator: Sketch 3.3.2 (12043) - http://www.bohemiancoding.com/sketch -->
    <title>boombotix</title>
    <desc>Created with Sketch.</desc>
    <defs>
        <path id="path-1" d="M0,0.491 L289.812,0.491 L289.812,34 L0,34 L0,0.491 Z"></path>
    </defs>
    <g id="Page-1" stroke="none" stroke-width="1" fill="none" fill-rule="evenodd" sketch:type="MSPage">
        <g id="boombotix" sketch:type="MSLayerGroup">
            <g>
                <g>
                    <g>
                        <path d="M240.599,34 L247.669,34 L247.669,0.491 L240.599,0.491 L240.599,34 Z" id="Fill-1" fill="#B59171" sketch:type="MSShapeGroup"></path>
                        <g id="Group-15">
                            <g id="Group-4">
                                <g>
                                    <mask id="mask-2" sketch:name="Clip 3" fill="white">
                                        <use xlink:href="#path-1"></use>
                                    </mask>
                                    <g id="Clip-3"></g>
                                    <path d="M23.4785,26.751 C23.5065,26.751 23.6195,26.731 23.8145,26.688 C24.0115,26.645 24.1645,26.598 24.2765,26.542 C24.9205,26.318 25.3685,25.968 25.6205,25.49 C25.8725,25.015 25.9985,24.456 25.9985,23.812 C25.9985,23.281 25.9065,22.781 25.7265,22.319 C25.5435,21.857 25.1725,21.53 24.6135,21.333 C24.4455,21.277 24.1935,21.193 23.8565,21.08 C23.5215,20.969 23.3395,20.912 23.3115,20.912 L8.6945,20.912 L8.6945,13.731 L23.4785,13.731 C23.5065,13.731 23.6195,13.703 23.8145,13.647 C24.0115,13.591 24.1645,13.536 24.2765,13.478 C24.9205,13.255 25.3685,12.906 25.6205,12.428 C25.8725,11.954 25.9985,11.393 25.9985,10.749 C25.9985,9.937 25.7675,9.265 25.3055,8.731 C24.8435,8.201 24.1785,7.933 23.3115,7.933 L7.1815,7.933 L7.1815,25.239 L-0.0005,25.239 L-0.0005,0.71 L23.8145,0.71 C24.3745,0.71 24.9145,0.78 25.4315,0.92 C25.9495,1.061 26.4615,1.227 26.9645,1.424 C28.0015,1.789 28.9045,2.284 29.6745,2.915 C30.4445,3.544 31.0955,4.273 31.6265,5.099 C32.1595,5.925 32.5575,6.829 32.8235,7.809 C33.0905,8.789 33.2225,9.796 33.2225,10.833 C33.2225,12.009 33.0695,13.13 32.7595,14.193 C32.4525,15.257 31.9365,16.264 31.2065,17.217 L31.2065,17.427 C31.9365,18.407 32.4525,19.421 32.7595,20.472 C33.0695,21.52 33.2225,22.677 33.2225,23.938 C33.2225,25 33.0815,26.023 32.8025,27.004 C32.5225,27.985 32.1115,28.887 31.5655,29.713 C31.0185,30.538 30.3455,31.267 29.5485,31.896 C28.7485,32.526 27.8335,33.009 26.7985,33.344 C26.6565,33.374 26.3905,33.444 25.9985,33.555 C25.6055,33.667 25.3415,33.739 25.2015,33.765 C25.0885,33.794 24.8925,33.829 24.6135,33.871 C24.3325,33.913 24.1645,33.934 24.1075,33.934 L-0.0005,33.934 L-0.0005,26.751 L23.4785,26.751 Z" id="Fill-2" fill="#B59171" sketch:type="MSShapeGroup" mask="url(#mask-2)"></path>
                                </g>
                            </g>
                            <path d="M47.3017,26.7094 L57.2977,26.7094 C57.8577,26.7094 58.4107,26.6044 58.9557,26.3934 C59.5017,26.1824 59.9987,25.8904 60.4467,25.5124 C60.8947,25.1344 61.2517,24.6924 61.5177,24.1904 C61.7847,23.6854 61.9167,23.1384 61.9167,22.5514 L61.9167,12.5554 C61.9167,11.9664 61.7977,11.3934 61.5607,10.8324 C61.3217,10.2734 60.9997,9.7744 60.5937,9.3414 C60.1877,8.9074 59.7197,8.5644 59.1857,8.3124 C58.6547,8.0604 58.0807,7.9344 57.4657,7.9344 L48.0147,7.9344 C47.3977,7.9344 46.7957,8.0464 46.2087,8.2704 C45.6207,8.4944 45.1017,8.8014 44.6537,9.1944 C44.2057,9.5854 43.8427,10.0544 43.5617,10.6004 C43.2817,11.1464 43.1437,11.7424 43.1437,12.3864 L43.1437,21.9214 C43.1437,22.4814 43.2327,23.0194 43.4157,23.5364 C43.5967,24.0574 43.8497,24.5244 44.1727,24.9454 C44.4927,25.3654 44.8797,25.7214 45.3257,26.0164 C45.7737,26.3104 46.2647,26.5144 46.7957,26.6264 C46.8527,26.6544 47.0197,26.6814 47.3017,26.7094 M39.9297,31.0144 C38.2357,29.4874 37.0667,27.5894 36.4227,25.3234 C36.3387,24.9604 36.2327,24.4904 36.1067,23.9164 C35.9807,23.3414 35.9187,22.8604 35.9187,22.4664 L35.9187,11.8404 C35.9187,11.5324 35.9597,11.1414 36.0447,10.6644 C36.1297,10.1874 36.1987,9.8244 36.2537,9.5734 C36.5057,8.3124 36.9597,7.1854 37.6197,6.1914 C38.2767,5.1974 39.0757,4.3364 40.0137,3.6074 C40.9517,2.8794 41.9877,2.2784 43.1217,1.8014 C44.2557,1.3264 45.4237,0.9894 46.6277,0.7954 C46.6847,0.7954 46.8247,0.7794 47.0477,0.7524 C47.2737,0.7234 47.4127,0.7104 47.4677,0.7104 L57.9267,0.7104 C59.1857,0.7104 60.3917,0.9354 61.5397,1.3824 C62.6867,1.8304 63.7307,2.4474 64.6687,3.2294 C65.6067,4.0144 66.4177,4.9304 67.1047,5.9814 C67.7907,7.0294 68.3007,8.1444 68.6377,9.3194 C68.6657,9.4324 68.7217,9.6764 68.8067,10.0544 C68.8897,10.4344 68.9457,10.6784 68.9727,10.7904 C69.0017,10.9314 69.0367,11.1554 69.0797,11.4624 C69.1197,11.7704 69.1417,11.9534 69.1417,12.0074 L69.1417,22.9704 C69.1417,23.5884 69.0647,24.1974 68.9107,24.7984 C68.7557,25.4004 68.5677,25.9804 68.3437,26.5404 C67.7557,28.2214 66.7817,29.6354 65.4247,30.7824 C64.0657,31.9314 62.5477,32.7874 60.8677,33.3444 C60.4197,33.4844 59.9357,33.6194 59.4187,33.7444 C58.8997,33.8694 58.4027,33.9344 57.9267,33.9344 L46.7957,33.9344 C46.7397,33.9344 46.6147,33.9274 46.4187,33.9124 C46.2217,33.8974 46.0837,33.8774 45.9977,33.8494 C43.6457,33.4844 41.6217,32.5414 39.9297,31.0144" id="Fill-5" fill="#B59171" sketch:type="MSShapeGroup"></path>
                            <path d="M83.4069,26.7094 L93.4039,26.7094 C93.9629,26.7094 94.5159,26.6044 95.0609,26.3934 C95.6079,26.1824 96.1049,25.8904 96.5529,25.5124 C96.9999,25.1344 97.3579,24.6924 97.6239,24.1904 C97.8909,23.6854 98.0229,23.1384 98.0229,22.5514 L98.0229,12.5554 C98.0229,11.9664 97.9039,11.3934 97.6659,10.8324 C97.4289,10.2734 97.1069,9.7744 96.7009,9.3414 C96.2929,8.9074 95.8259,8.5644 95.2939,8.3124 C94.7609,8.0604 94.1869,7.9344 93.5699,7.9344 L84.1229,7.9344 C83.5039,7.9344 82.9039,8.0464 82.3129,8.2704 C81.7269,8.4944 81.2089,8.8014 80.7599,9.1944 C80.3119,9.5854 79.9489,10.0544 79.6699,10.6004 C79.3889,11.1464 79.2499,11.7424 79.2499,12.3864 L79.2499,21.9214 C79.2499,22.4814 79.3389,23.0194 79.5209,23.5364 C79.7039,24.0574 79.9559,24.5244 80.2779,24.9454 C80.5999,25.3654 80.9839,25.7214 81.4319,26.0164 C81.8799,26.3104 82.3709,26.5144 82.9039,26.6264 C82.9589,26.6544 83.1269,26.6814 83.4069,26.7094 M76.0359,31.0144 C74.3409,29.4874 73.1729,27.5894 72.5289,25.3234 C72.4439,24.9604 72.3389,24.4904 72.2139,23.9164 C72.0869,23.3414 72.0249,22.8604 72.0249,22.4664 L72.0249,11.8404 C72.0249,11.5324 72.0659,11.1414 72.1509,10.6644 C72.2349,10.1874 72.3049,9.8244 72.3619,9.5734 C72.6119,8.3124 73.0669,7.1854 73.7259,6.1914 C74.3839,5.1974 75.1809,4.3364 76.1199,3.6074 C77.0579,2.8794 78.0939,2.2784 79.2279,1.8014 C80.3619,1.3264 81.5309,0.9894 82.7349,0.7954 C82.7909,0.7954 82.9299,0.7794 83.1539,0.7524 C83.3789,0.7234 83.5189,0.7104 83.5739,0.7104 L94.0329,0.7104 C95.2939,0.7104 96.4979,0.9354 97.6459,1.3824 C98.7929,1.8304 99.8359,2.4474 100.7739,3.2294 C101.7119,4.0144 102.5249,4.9304 103.2099,5.9814 C103.8959,7.0294 104.4069,8.1444 104.7439,9.3194 C104.7709,9.4324 104.8279,9.6764 104.9129,10.0544 C104.9959,10.4344 105.0519,10.6784 105.0789,10.7904 C105.1069,10.9314 105.1429,11.1554 105.1859,11.4624 C105.2259,11.7704 105.2479,11.9534 105.2479,12.0074 L105.2479,22.9704 C105.2479,23.5884 105.1709,24.1974 105.0169,24.7984 C104.8639,25.4004 104.6739,25.9804 104.4489,26.5404 C103.8629,28.2214 102.8879,29.6354 101.5309,30.7824 C100.1719,31.9314 98.6539,32.7874 96.9739,33.3444 C96.5259,33.4844 96.0409,33.6194 95.5249,33.7444 C95.0069,33.8694 94.5089,33.9344 94.0329,33.9344 L82.9039,33.9344 C82.8469,33.9344 82.7209,33.9274 82.5249,33.9124 C82.3279,33.8974 82.1899,33.8774 82.1039,33.8494 C79.7529,33.4844 77.7289,32.5414 76.0359,31.0144" id="Fill-7" fill="#B59171" sketch:type="MSShapeGroup"></path>
                            <path d="M128.477,33.934 L121.378,33.934 L121.378,9.405 L128.477,9.405 L128.477,33.934 Z M134.356,33.934 L134.356,12.093 C134.245,11.644 134.177,11.363 134.147,11.253 C133.868,10.273 133.287,9.475 132.404,8.857 C131.523,8.243 130.565,7.934 129.528,7.934 L120.247,7.934 C119.126,7.934 118.173,8.249 117.39,8.88 C116.605,9.51 116.073,10.355 115.794,11.42 C115.736,11.588 115.674,11.84 115.604,12.177 C115.535,12.512 115.499,12.695 115.499,12.722 L115.499,33.934 L108.318,33.934 L108.318,12.26 C108.318,11.729 108.38,11.188 108.505,10.643 C108.631,10.097 108.764,9.573 108.904,9.069 C109.549,6.914 110.682,5.106 112.306,3.649 C113.931,2.193 115.849,1.269 118.06,0.878 C118.201,0.85 118.467,0.815 118.86,0.772 C119.25,0.731 119.475,0.71 119.531,0.71 L129.991,0.71 C130.466,0.71 130.955,0.759 131.459,0.856 C131.965,0.955 132.453,1.074 132.93,1.214 C134.947,1.803 136.697,2.811 138.18,4.238 C139.664,5.665 140.672,7.416 141.203,9.489 C141.203,9.544 141.24,9.756 141.31,10.118 C141.378,10.482 141.427,10.735 141.457,10.874 C141.457,10.958 141.47,11.1 141.5,11.294 C141.525,11.491 141.54,11.616 141.54,11.674 L141.54,33.934 L134.356,33.934 Z" id="Fill-9" fill="#B59171" sketch:type="MSShapeGroup"></path>
                            <path d="M152.2775,20.6627 L152.2775,26.8617 L165.5125,26.8617 C166.5535,26.8617 167.4245,26.6257 168.1265,26.1907 C168.9315,25.6897 169.3655,24.9507 169.4015,23.9467 C169.4665,22.8397 169.0975,21.9697 168.2935,21.3997 C167.5905,20.8977 166.6855,20.6627 165.5125,20.6627 L152.2775,20.6627 Z M152.2775,13.5577 L165.0455,13.5577 C166.1825,13.5577 167.0865,13.3237 167.7935,12.8557 C168.6305,12.3187 168.9965,11.5147 168.9315,10.4097 C168.8305,8.5667 167.5585,7.6287 165.0455,7.6287 L152.2775,7.6287 L152.2775,13.5577 Z M152.2775,0.5577 L165.0455,0.5577 C167.6245,0.5577 169.8005,1.1617 171.6465,2.4007 C174.3585,4.2437 175.8345,6.7907 176.0335,10.0417 C176.2015,12.6207 175.4305,14.8997 173.7885,16.8757 C175.7665,18.9537 176.6715,21.4327 176.5035,24.3157 C176.3025,27.5977 174.8625,30.1787 172.1475,32.0207 C170.2705,33.2947 168.0595,33.9317 165.5125,33.9317 L152.2775,33.9317 L152.2775,33.9977 L145.2065,33.9977 L145.2065,0.4917 L152.2775,0.4917 L152.2775,0.5577 Z" id="Fill-11" fill="#B59171" sketch:type="MSShapeGroup"></path>
                            <path d="M191.1091,7.5952 C189.7021,7.5952 188.4951,8.0982 187.4561,9.1352 C186.4511,10.1422 185.9481,11.3482 185.9481,12.7552 L185.9481,21.7352 C185.9481,23.1432 186.4511,24.3492 187.4561,25.3872 C188.4951,26.3912 189.7021,26.8952 191.1091,26.8952 L200.0891,26.8952 C201.4971,26.8952 202.7011,26.3912 203.7091,25.3872 C204.7471,24.3492 205.2511,23.1432 205.2511,21.7352 L205.2511,12.7552 C205.2511,11.3482 204.7471,10.1422 203.7091,9.1352 C202.7011,8.0982 201.4971,7.5952 200.0891,7.5952 L191.1091,7.5952 Z M200.0891,0.4912 C203.4731,0.4912 206.3891,1.6972 208.7691,4.0762 C211.1461,6.4572 212.3531,9.3692 212.3531,12.7552 L212.3531,21.7352 C212.3531,25.1192 211.1461,28.0342 208.7691,30.4132 C206.3891,32.7922 203.4731,33.9982 200.0891,33.9982 L191.1091,33.9982 C187.7251,33.9982 184.8091,32.7922 182.4311,30.4132 C180.0501,28.0342 178.8471,25.1192 178.8471,21.7352 L178.8471,12.7552 C178.8471,9.3692 180.0501,6.4572 182.4311,4.0762 C184.8091,1.6972 187.7251,0.4912 191.1091,0.4912 L200.0891,0.4912 Z" id="Fill-12" fill="#B59171" sketch:type="MSShapeGroup"></path>
                            <g id="Fill-13" transform="translate(212.000000, 0.000000)" fill="#B59171" sketch:type="MSShapeGroup">
                                <path d="M25.853,7.528 L16.93,7.528 L16.93,34 L9.893,34 L9.893,7.528 L0.976,7.528 L0.976,0.491 L25.853,0.491 L25.853,7.528 Z"></path>
                            </g>
                            <path d="M260.3253,0.4913 L269.2733,10.6433 L278.2523,0.4913 L287.8023,0.4913 L274.0633,16.0713 L289.8123,33.9313 L280.3283,34.0003 L269.2733,21.4673 L258.2493,34.0003 L248.8313,34.0003 L248.7653,33.9313 L264.5133,16.0713 L250.7753,0.4913 L260.3253,0.4913 Z" id="Fill-14" fill="#B59171" sketch:type="MSShapeGroup"></path>
                        </g>
                    </g>
                </g>
            </g>
        </g>
    </g>
</svg>