<?xml version="1.0" encoding="UTF-8" standalone="no"?>
<svg width="327px" height="327px" viewBox="0 0 327 327" version="1.1" xmlns="http://www.w3.org/2000/svg" xmlns:xlink="http://www.w3.org/1999/xlink" xmlns:sketch="http://www.bohemiancoding.com/sketch/ns">
    <!-- Generator: Sketch 3.3.2 (12043) - http://www.bohemiancoding.com/sketch -->
    <title>Vector Smart Object</title>
    <desc>Created with Sketch.</desc>
    <defs></defs>
    <g id="Page-1" stroke="none" stroke-width="1" fill="none" fill-rule="evenodd" sketch:type="MSPage">
        <g id="Vector-Smart-Object" sketch:type="MSLayerGroup" fill="#000000">
            <g sketch:type="MSShapeGroup">
                <path d="M261.12,299.8 L65.28,299.8 L44.2,204.6 L282.2,204.6 L261.12,299.8 Z M27.2,150.2 L299.2,150.2 L299.2,177.4 L27.2,177.4 L27.2,150.2 Z M312.8,123 L13.6,123 C6.12,123 0,129.12 0,136.6 L0,191 C0,198.48 6.12,204.6 13.6,204.6 L16.32,204.6 L40.8,316.12 C42.16,322.24 47.6,327 54.4,327 L272,327 C278.12,327 283.56,322.24 285.6,316.12 L310.08,204.6 L312.8,204.6 C320.28,204.6 326.4,198.48 326.4,191 L326.4,136.6 C326.4,129.12 320.28,123 312.8,123 L312.8,123 Z" id="Fill-1"></path>
                <path d="M81.6,109.4 C89.08,109.4 95.2,103.28 95.2,95.8 C95.2,58.4 125.8,27.8 163.2,27.8 C200.6,27.8 231.2,58.4 231.2,95.8 C231.2,103.28 237.32,109.4 244.8,109.4 C252.28,109.4 258.4,103.28 258.4,95.8 C258.4,43.44 215.56,0.6 163.2,0.6 C110.84,0.6 68,43.44 68,95.8 C68,103.28 74.12,109.4 81.6,109.4" id="Fill-3"></path>
            </g>
        </g>
    </g>
</svg>