<?xml version="1.0" encoding="UTF-8" standalone="no"?>
<svg width="442px" height="289px" viewBox="0 0 442 289" version="1.1" xmlns="http://www.w3.org/2000/svg" xmlns:xlink="http://www.w3.org/1999/xlink" xmlns:sketch="http://www.bohemiancoding.com/sketch/ns">
    <!-- Generator: Sketch 3.3.2 (12043) - http://www.bohemiancoding.com/sketch -->
    <title>Untitled</title>
    <desc>Created with Sketch.</desc>
    <defs></defs>
    <g id="Page-1" stroke="none" stroke-width="1" fill="none" fill-rule="evenodd" sketch:type="MSPage">
        <g id="water" sketch:type="MSLayerGroup" transform="translate(0.000000, -5.000000)" fill="#020302">
            <g id="Page-1" sketch:type="MSShapeGroup">
                <g id="Vector-Smart-Object">
                    <g id="Page-1">
                        <path d="M66.6813083,180.314462 C72.4561666,181.246273 78.0757425,182.856531 83.920069,185.039562 L83.8209507,184.999488 C85.759251,185.844111 87.5598875,186.66448 89.1754671,187.427989 C89.7397676,187.694673 90.2401889,187.934977 90.6708276,188.144829 C90.927123,188.269723 91.1018903,188.356048 91.1892342,188.399735 L96.7269501,191.169519 L93.8558972,185.683623 C93.8106173,185.597104 93.7215761,185.425414 93.592624,185.174321 C93.3763819,184.753258 93.1279118,184.264294 92.851066,183.713202 C92.6085303,183.276415 91.719795,181.598009 91.5560912,181.295611 C90.9204059,180.121357 90.3331406,179.109603 89.6784563,178.090794 C85.8126423,172.260566 81.352697,166.782046 76.2386296,162.105116 C65.7204017,151.854381 49.5905641,142.188935 40.7099803,140.080111 C25.0858717,136.350208 10.0315968,142.93975 9.34673212,153.988263 C8.71736034,164.056015 18.4636523,173.262034 31.9931012,176.561068 C34.2086474,177.08878 37.0698316,177.386835 42.6762049,177.771912 C54.4459245,178.580321 55.5507392,178.66796 60.5060262,179.3227 C62.663096,179.607713 64.6950741,179.931921 66.6207421,180.303731 L66.6813083,180.314462 Z M67.3790595,176.376269 C65.371636,175.988674 63.2621877,175.652105 61.029991,175.357166 C58.1103819,174.971399 55.0530809,174.664279 51.5573599,174.386982 C50.1894505,174.278474 48.796031,174.177382 47.0958817,174.061131 C46.4205359,174.014953 43.6459581,173.829096 42.950301,173.781314 C37.5853475,173.41282 34.8367739,173.126495 32.9302839,172.672421 C21.0829964,169.783538 12.8530825,162.009838 13.3390042,154.236784 C13.8382849,146.18219 26.2630499,140.743635 39.7834962,143.971335 C47.9067575,145.900323 63.4159623,155.193868 73.4931151,165.013404 C78.3840481,169.487632 82.6456839,174.722552 86.3290665,180.277289 C86.9074323,181.177715 87.44673,182.106829 88.0384604,183.199889 C88.1819711,183.464986 89.091536,185.182729 89.3194117,185.58914 C89.5590148,186.070706 89.8128572,186.570242 90.0344276,187.001679 C90.168163,187.262086 90.2619343,187.442896 90.3119044,187.538377 L92.0839008,186.611 L92.9785674,184.822265 C92.8790988,184.772514 92.6919832,184.68009 92.4230677,184.549046 C91.9783549,184.332336 91.4635809,184.08514 90.8845845,183.811511 C89.2336016,183.03127 87.3961756,182.194139 85.4188509,181.332512 L85.3197326,181.292438 C79.2474508,179.024258 73.385025,177.344413 67.3184933,176.365538 L67.3790595,176.376269 Z M73.1291724,276.632075 C85.1290315,275.788378 97.0766736,276.006366 107.84963,277.475654 C117.974667,278.502623 127.357889,281.397592 138.392158,286.182882 L138.279034,286.129562 C138.514476,286.249672 138.750058,286.371593 138.986091,286.495437 C141.358676,287.740308 147.895803,291.647983 147.483047,291.414141 C148.432622,291.990029 149.316111,292.523202 150.074705,292.979611 C150.340397,293.139466 150.494393,293.231982 150.767058,293.395625 C150.963999,293.513708 150.963999,293.513708 151.005076,293.538284 L156.190023,296.640354 L153.879951,291.057337 C153.810183,290.888719 153.67416,290.559846 153.475672,290.079745 C153.144815,289.279472 152.758835,288.345452 152.321418,287.286466 C151.994323,286.5597 150.673078,283.469984 150.360374,282.757871 C149.402692,280.576966 148.497521,278.662743 147.473355,276.708587 L147.416161,276.6068 C140.507829,265.111279 132.471384,255.064859 122.434274,247.003654 C102.287435,229.298812 69.788923,215.245625 51.8652278,214.084186 C22.9480935,212.016419 -1.58451322,228.288226 1.20793597,246.944066 C3.66537666,263.725856 23.0143928,275.968429 47.1737677,277.750581 C50.7137803,278.089983 52.7550796,277.992629 65.2712431,277.11969 C68.3827923,276.902675 70.7189696,276.755246 73.0906678,276.634409 L73.1291724,276.632075 Z M72.8871338,272.639591 C70.485997,272.761928 68.1272603,272.91078 64.9929395,273.129383 C52.8373043,273.977177 50.7609146,274.076205 47.5115109,273.765104 C24.9654032,272.10148 7.29754136,260.922612 5.1647962,246.358219 C2.83383808,230.785448 24.8773579,216.164584 51.5932548,218.074907 C68.6268009,219.17871 100.294964,232.872832 119.86178,250.065425 C129.544536,257.844545 137.301927,267.542118 143.987641,278.6672 L143.930447,278.565413 C144.907218,280.429138 145.774533,282.263304 146.697928,284.366129 C146.995933,285.044768 148.328927,288.161957 148.650197,288.873255 C149.061967,289.872923 149.448112,290.80734 149.77913,291.608005 C149.977767,292.088466 150.113869,292.417531 150.183851,292.586663 L152.031901,291.822 L153.058726,290.105716 C152.899874,290.010677 152.589632,289.824557 152.136847,289.552139 C151.381379,289.09761 150.501055,288.566346 149.504723,287.963131 C149.953259,288.21628 143.334893,284.260042 140.844565,282.953393 C140.595111,282.822508 140.345954,282.693561 140.096768,282.566438 L139.983644,282.513118 C128.604557,277.578289 118.860015,274.571842 108.321489,273.504185 C97.3236427,272.003019 85.1062146,271.780108 72.8486292,272.641925 L72.8871338,272.639591 Z M343.299177,201.869259 C328.53414,210.772076 314.190298,222.969196 303.617232,235.824567 C302.342083,237.291365 301.109235,238.913324 299.59892,241.058864 C299.135302,241.717477 297.220725,244.488281 296.726018,245.188584 C296.555188,245.430409 296.391866,245.659685 296.233292,245.880141 C295.770738,246.584895 295.334408,247.224388 294.769091,248.031927 C294.736512,248.078465 293.477015,249.865898 293.11735,250.385757 C291.64318,252.516522 290.675032,254.110032 289.88192,255.834189 C288.867562,257.838778 285.432909,264.336952 285.142973,264.898232 C283.378442,268.314146 282.214809,270.831231 281.339761,273.2548 C279.683292,277.796262 278.229868,281.896438 276.992109,285.482303 C276.558518,286.738442 276.182754,287.840887 275.866118,288.781275 C275.755094,289.11101 275.65934,289.397092 275.57902,289.638474 C275.530552,289.78413 275.498191,289.881947 275.481059,289.93402 L273.308932,296.536948 L278.65808,292.098095 C278.820003,291.963728 278.820003,291.963728 279.593406,291.321741 C280.35785,290.687139 281.248422,289.947677 282.256206,289.110701 C285.135527,286.719392 288.376731,284.026202 291.908507,281.08991 C292.973308,280.212821 294.216384,279.299467 295.717074,278.280674 C297.426455,277.120203 303.972846,272.9701 304.973074,272.313648 C305.472991,271.985551 305.951166,271.667623 306.414701,271.354796 C307.720002,270.394252 308.98702,269.715965 311.692719,268.433655 C312.017424,268.279854 312.190556,268.197833 312.344926,268.124538 C313.526626,267.563466 314.286635,267.189465 315.064471,266.776094 L314.970035,266.823129 C315.848306,266.414235 316.640889,266.021561 317.994357,265.334119 C318.186588,265.236453 318.186588,265.236453 318.37828,265.139022 C321.150819,263.729973 322.473527,263.105826 324.122709,262.487823 C335.679042,257.786842 348.710298,254.545783 362.366356,252.576524 C368.111004,251.995857 385.282905,250.485472 387.97999,250.200724 C388.985639,250.094551 389.890402,249.991758 390.712203,249.889776 C403.376576,247.744208 414.696615,243.956838 423.633902,238.824354 C433.494417,233.117956 439.614705,226.078536 441.098831,217.757161 C442.723162,208.676649 436.548986,199.37164 425.170159,193.244089 C413.425811,186.806901 396.902593,184.358554 380.297779,187.172107 C371.368911,188.363406 357.487483,193.849781 343.347871,201.840826 L343.299177,201.869259 Z M345.315931,205.323174 C359.050171,197.561225 372.490732,192.249094 380.89667,191.126397 C396.708447,188.448465 412.318723,190.761536 423.260617,196.758834 C433.278024,202.153316 438.436028,209.926869 437.161151,217.053828 C435.915588,224.037604 430.565023,230.191705 421.636132,235.358972 C413.142542,240.236638 402.267186,243.87523 390.131522,245.93315 C389.423751,246.018986 388.54278,246.119075 387.560019,246.222832 C384.906806,246.502948 367.746008,248.012356 361.879154,248.607202 C347.840218,250.629877 334.502341,253.947196 322.667176,258.762462 C320.886606,259.42887 319.468274,260.09814 316.566026,261.573109 C316.374187,261.670615 316.374187,261.670615 316.182964,261.767768 C314.867788,262.435762 314.107471,262.81245 313.281767,263.196871 L313.187331,263.243906 C312.475587,263.622155 311.760563,263.974018 310.629286,264.51115 C310.476737,264.58358 310.3055,264.664703 309.97965,264.819046 C307.043351,266.210644 305.621025,266.972074 304.108771,268.087428 C303.728334,268.342065 303.264374,268.650542 302.778326,268.969537 C301.826295,269.594357 295.242555,273.768137 293.470361,274.971251 C291.875038,276.054289 290.536307,277.037924 289.358295,278.008297 C285.820071,280.949923 282.5794,283.642671 279.700596,286.033549 C278.693037,286.870339 277.802686,287.609618 277.038459,288.24404 C276.265362,288.885772 276.265362,288.885772 276.103722,289.019905 L279.280743,291.18398 C279.295767,291.138303 279.327392,291.042712 279.374415,290.901397 C279.453245,290.664493 279.547493,290.38291 279.656996,290.057694 C279.970438,289.126792 280.34294,288.033918 280.773193,286.787447 C282.003559,283.223 283.44926,279.144613 285.09982,274.619319 C285.905963,272.386623 287.005348,270.008515 288.696829,266.734018 C288.971189,266.20289 292.417653,259.682371 293.48398,257.571938 C294.192638,256.034602 295.053528,254.617632 296.406823,252.661579 C296.754864,252.158521 298.004654,250.384864 298.045944,250.325884 C298.633925,249.485969 299.092843,248.813371 299.531583,248.141362 C299.646009,247.985775 299.815898,247.74728 299.993064,247.496485 C300.503142,246.774422 302.420246,243.999961 302.869794,243.361337 C304.308607,241.317371 305.466271,239.794326 306.671769,238.406602 C316.984,225.869513 330.979975,213.968197 345.364625,205.294741 L345.315931,205.323174 Z M208.281288,7.77824417 C202.119793,34.1664898 192.022243,59.8697349 177.388391,88.2432353 C165.430785,111.443163 157.449611,128.080822 150.360945,145.27053 C143.436621,162.074644 141.363285,179.318126 144.399226,196.851232 C149.98746,229.195594 173.754998,254.82111 201.842726,258.679394 C231.585333,262.743813 259.313249,245.348884 271.779592,214.806804 C281.192521,191.736755 280.546878,168.080567 270.505659,143.92822 C263.823889,127.863824 257.816486,115.415237 243.870651,87.8459391 C243.816411,87.7387123 243.816411,87.7387123 243.762171,87.6314869 C242.968181,86.0618572 242.554821,85.2445274 242.082831,84.3107676 C231.396999,63.1561617 223.978613,45.6220903 218.633203,27.7304738 C217.779286,24.8839399 216.942056,21.9537718 215.86113,18.0629937 C215.629389,17.2288459 215.392919,16.3742645 215.075122,15.2232865 C214.877705,14.508142 214.877705,14.508142 214.679436,13.7897517 C214.480665,13.069677 214.398481,12.7720768 214.280737,12.3461113 C213.629096,9.98865238 213.136005,8.21913823 212.637454,6.45585181 L211.033655,0.78351118 L208.854573,6.2606651 C208.792797,6.41593911 208.736011,6.55600838 208.674542,6.70545412 C208.649288,6.76685112 208.558592,6.98602801 208.538162,7.03583037 C208.42511,7.3114232 208.363601,7.47722065 208.305879,7.68325935 C208.302969,7.693681 208.302969,7.693681 208.300093,7.70413331 L208.281288,7.77824417 Z M212.157709,8.76186669 C212.157642,8.76210855 212.157642,8.76210855 212.157583,8.7623224 C212.162329,8.7453807 212.181024,8.69498856 212.23889,8.55392569 C212.256416,8.51120121 212.346135,8.29438562 212.373837,8.22703586 C212.440861,8.06408671 212.503352,7.90994623 212.571229,7.7393349 L210.712901,7 L208.788348,7.54414819 C209.284395,9.29857295 209.775579,11.0612461 210.425316,13.4118142 C210.542902,13.8372113 210.624964,14.1343702 210.823618,14.8540198 C211.021851,15.5722804 211.021851,15.5722804 211.219397,16.2878918 C211.537709,17.440733 211.774687,18.2971512 212.007098,19.1337111 C213.0947,23.0485217 213.938769,26.002626 214.801241,28.8776703 C220.223466,47.0264009 227.728713,64.7657766 238.512725,86.1147465 C238.985193,87.0494523 239.398685,87.8670437 240.192848,89.4370143 C240.247088,89.5442422 240.247088,89.5442422 240.301329,89.6514687 C254.20274,117.132946 260.181128,129.521408 266.812269,145.464082 C276.460648,168.671524 277.076508,191.236459 268.07611,213.295441 C256.278136,242.20004 230.255841,258.524959 202.385691,254.716417 C176.12019,251.108443 153.646242,226.87764 148.340703,196.169499 C145.435841,179.393395 147.417413,162.913085 154.059064,146.794968 C161.095709,129.731411 169.033719,113.183731 180.943659,90.0762843 C195.717806,61.4307679 205.932546,35.4292145 212.176514,8.68775583 L212.157709,8.76186669 Z" id="Shape"></path>
                    </g>
                </g>
            </g>
        </g>
    </g>
</svg>