<?xml version="1.0" encoding="utf-8"?>
<!-- Generator: Adobe Illustrator 18.1.0, SVG Export Plug-In . SVG Version: 6.00 Build 0)  -->
<!DOCTYPE svg PUBLIC "-//W3C//DTD SVG 1.1 Tiny//EN" "http://www.w3.org/Graphics/SVG/1.1/DTD/svg11-tiny.dtd">
<svg version="1.1" baseProfile="tiny" id="Layer_1" xmlns="http://www.w3.org/2000/svg" xmlns:xlink="http://www.w3.org/1999/xlink"
	 x="0px" y="0px" viewBox="36 38 511 563" xml:space="preserve">
<path d="M542.5,52.5c0-0.3-0.1-0.7-0.1-1c-0.1-0.4-0.1-0.8-0.3-1.2c0-0.1,0-0.2-0.1-0.3c-0.1-0.2-0.3-0.4-0.4-0.6
	c-0.2-0.4-0.4-0.7-0.8-1c-0.3-0.3-0.6-0.5-0.9-0.7c-0.2-0.1-0.4-0.3-0.6-0.5c-0.1,0-0.2,0-0.3-0.1c-0.4-0.2-0.8-0.3-1.3-0.3
	c-0.3-0.1-0.6-0.1-0.9-0.2c-0.4,0-0.8,0.1-1.1,0.2c-0.4,0.1-0.8,0.1-1.1,0.3c-0.1,0-0.2,0-0.3,0.1c-0.3,0.1-34.1,15.6-48.9,20.4
	c-136.1,44-185.3,89.4-203,115.3c-0.6-1.3-1.7-2.5-3.1-3.1c-2-0.8-4.4-0.5-6.1,0.9c-25.7,21.5-37.4,56.1-42.5,78.7l-4.8-13.2
	c-0.7-1.8-2.2-3.2-4.2-3.7c-1.9-0.5-3.9,0.1-5.4,1.4c-12,11.3-51.2,83.7-64.4,108.4l-7.4-7.9c-2.1-2.3-5.7-2.5-8.1-0.5
	c-1.4,1.2-33.4,29.2-33.2,73.3c0.2,41.1-2.6,77-2.6,77.3c0,0,0,0,0,0c-0.1,0.8,0,1.5,0.3,2.3c0.1,0.3,0.3,0.6,0.5,0.9
	c-19.1,27.5-38.9,56.7-59.2,88.1c-1.8,2.7-1,6.3,1.7,8.1c1,0.6,2.1,0.9,3.2,0.9c1.9,0,3.8-0.9,4.9-2.7
	c22.8-35.1,44.8-67.6,66.1-97.8c17.5-8.8,43.6-7.6,61.7-6.8c7.1,0.3,12.8,0.6,16.8,0.2c3.3-0.3,9.4-0.8,10.5-6.2
	c0.9-4.3-2.1-6.9-5.8-9.2c0.7,0.1,1.3,0.2,1.9,0.3c11.4,1.5,19.2,2.3,24.2,0.4c4.7-1.8,5.1-5.5,5.1-6.6c0.1-5.9-5.9-8.3-18.9-13.5
	c-1.6-0.6-3.6-1.4-5.6-2.3c2.4,0,4.8,0.1,7.1,0.2c19,0.6,42.8,1.3,55.8-4.4c2.8-1.2,10.1-4.5,10-11c-0.2-6.9-8-9.9-16.3-13.1
	c-1.5-0.6-3.4-1.3-5.2-2.1c3.8-1.7,9.1-3.8,14.4-5.9c29.1-11.6,83.3-33.2,122.6-74.5c17.7-18.6,23-28.6,19-35.8
	c-4.8-8.6-18.8-5.5-35-2c-3.1,0.7-7,1.5-10.7,2.2c3.9-1.3,8.3-2.5,12.1-3.6c20.1-5.7,47.6-13.5,59.2-32.2
	c18.1-29.3,40.9-64.3,41.1-64.6c1.2-1.9,1.3-4.3,0.1-6.2c-1.2-1.9-3.4-3-5.5-2.8c-5,0.4-10.3,0.9-15.1,1.2
	c12.7-8.1,27.9-18.4,34.2-26.6c5.7-7.3,11.1-22.9,18.5-44.4c7.2-20.9,16.2-46.9,27.6-70c0-0.1,0-0.2,0.1-0.3
	c0.2-0.4,0.2-0.8,0.3-1.2C542.4,53.2,542.5,52.9,542.5,52.5z M503.3,121.2c-6.6,18.9-12.2,35.3-16.7,41.1
	c-7.2,9.2-32.1,24.5-42.8,31c-7.8,4.8-8.3,5.1-9.1,6.8c-1,1.9-0.9,4.3,0.3,6c2.1,3.1,2.5,3.8,30.9,1.4c-8.1,12.6-22.4,35-34.7,54.8
	c-9.2,14.8-34.2,21.9-52.4,27.1c-15,4.2-24.9,7-28.2,13.3c-1.2,2.4-1.5,5-0.6,7.5c3.2,9.8,16.4,6.9,33.2,3.3
	c6.7-1.4,17.5-3.7,21.8-3.3c-0.9,2.3-4.2,8.3-16.7,21.5c-37.6,39.5-90.2,60.4-118.5,71.7c-19.7,7.9-26.4,10.5-25.5,17.4
	c0.8,6.4,8,9.2,16.4,12.4c1.7,0.6,4,1.5,5.9,2.4c0,0-0.1,0-0.1,0c-10.6,4.7-33.7,3.9-50.7,3.4c-21-0.7-27.1-0.6-29.9,4.3
	c-1.1,1.9-0.9,5.3,0.2,7.1c2.3,3.7,7.5,6.5,15.6,10c-10.5-1.3-16.6-1.7-19.8,2.4c-1.6,2-1.9,4.7-0.9,7.3c0.9,2.3,2.6,4.1,4.6,5.8
	c-1.6-0.1-3.2-0.1-5-0.2c-14.4-0.7-33.5-1.6-50.6,2.2c194.7-272,321.9-343.8,323.3-344.6c2.8-1.6,3.9-5.1,2.3-7.9
	c-1.5-2.8-5.1-3.9-7.9-2.3c-6,3.2-134.5,75.5-334.2,357.7c0.8-14.4,1.9-38,1.7-63.7c-0.2-29.7,17.1-51.7,25.1-60.3l8.9,9.5
	c1.3,1.4,3.2,2,5,1.8c1.9-0.3,3.5-1.4,4.4-3.1c18.1-34.3,46.2-85,60-105.1l8.8,24.1c0.9,2.6,3.5,4.1,6.3,3.8
	c2.7-0.4,4.8-2.6,5.1-5.3c0-0.6,4.9-52.4,33.3-84.4l0.5,7.1c0.2,3,2.6,5.3,5.6,5.4c3.4-0.1,5.6-2.1,6-5c0.1-0.6,12.1-64.6,204.9-127
	c9.2-3,24.7-9.6,36-14.5C516.3,83.8,509.2,104.2,503.3,121.2z"/>
</svg>
