<?xml version="1.0" encoding="UTF-8" standalone="no"?>
<svg width="432px" height="417px" viewBox="0 0 432 417" version="1.1" xmlns="http://www.w3.org/2000/svg" xmlns:xlink="http://www.w3.org/1999/xlink" xmlns:sketch="http://www.bohemiancoding.com/sketch/ns">
    <!-- Generator: Sketch 3.3.2 (12043) - http://www.bohemiancoding.com/sketch -->
    <title>Untitled 4</title>
    <desc>Created with Sketch.</desc>
    <defs></defs>
    <g id="Page-1" stroke="none" stroke-width="1" fill="none" fill-rule="evenodd" sketch:type="MSPage">
        <g id="Vector-Smart-Object" sketch:type="MSLayerGroup" fill="#000000">
            <g id="Page-1" sketch:type="MSShapeGroup">
                <path d="M255.8164,261.5989 L176.0854,261.5989 C163.439969,261.5989 153.0854,251.244331 153.0854,238.5989 L153.0854,161.1049 C153.0854,148.459469 163.439969,138.1049 176.0854,138.1049 L255.8164,138.1049 C268.461831,138.1049 278.8164,148.459469 278.8164,161.1049 L278.8164,238.5989 C278.8164,251.244331 268.461831,261.5989 255.8164,261.5989 L255.8164,261.5989 Z M255.8164,265.5989 C270.670969,265.5989 282.8164,253.453469 282.8164,238.5989 L282.8164,161.1049 C282.8164,146.250331 270.670969,134.1049 255.8164,134.1049 L176.0854,134.1049 C161.230831,134.1049 149.0854,146.250331 149.0854,161.1049 L149.0854,238.5989 C149.0854,253.453469 161.230831,265.5989 176.0854,265.5989 L255.8164,265.5989 L255.8164,265.5989 Z" id="Shape"></path>
                <path d="M328,175 C328,181.627431 322.627431,187 316,187 C309.372569,187 304,181.627431 304,175 C304,168.372569 309.372569,163 316,163 C322.627431,163 328,168.372569 328,175 L328,175 Z M332,175 C332,166.163431 324.836569,159 316,159 C307.163431,159 300,166.163431 300,175 C300,183.836569 307.163431,191 316,191 C324.836569,191 332,183.836569 332,175 L332,175 Z" id="Shape"></path>
                <path d="M330,177 L391,177 L391,173 L330,173 L330,177 L330,177 Z" id="Shape"></path>
                <path d="M428,174.5 C428,184.165431 420.165431,192 410.5,192 C400.834569,192 393,184.165431 393,174.5 C393,164.834569 400.834569,157 410.5,157 C420.165431,157 428,164.834569 428,174.5 L428,174.5 Z M432,174.5 C432,162.625431 422.374569,153 410.5,153 C398.625431,153 389,162.625431 389,174.5 C389,186.374569 398.625431,196 410.5,196 C422.374569,196 432,186.374569 432,174.5 L432,174.5 Z" id="Shape"></path>
                <path d="M328,228 C328,234.627431 322.627431,240 316,240 C309.372569,240 304,234.627431 304,228 C304,221.372569 309.372569,216 316,216 C322.627431,216 328,221.372569 328,228 L328,228 Z M332,228 C332,219.163431 324.836569,212 316,212 C307.163431,212 300,219.163431 300,228 C300,236.836569 307.163431,244 316,244 C324.836569,244 332,236.836569 332,228 L332,228 Z" id="Shape"></path>
                <path d="M426,245.5 C426,255.165431 418.165431,263 408.5,263 C398.834569,263 391,255.165431 391,245.5 C391,235.834569 398.834569,228 408.5,228 C418.165431,228 426,235.834569 426,245.5 L426,245.5 Z M430,245.5 C430,233.625431 420.374569,224 408.5,224 C396.625431,224 387,233.625431 387,245.5 C387,257.374569 396.625431,267 408.5,267 C420.374569,267 430,257.374569 430,245.5 L430,245.5 Z" id="Shape"></path>
                <path d="M100,175 C100,183.836569 107.163431,191 116,191 C124.836569,191 132,183.836569 132,175 C132,166.163431 124.836569,159 116,159 C107.163431,159 100,166.163431 100,175 L100,175 Z M104,175 C104,168.372569 109.372569,163 116,163 C122.627431,163 128,168.372569 128,175 C128,181.627431 122.627431,187 116,187 C109.372569,187 104,181.627431 104,175 L104,175 Z" id="Shape"></path>
                <path d="M100,227 C100,235.836569 107.163431,243 116,243 C124.836569,243 132,235.836569 132,227 C132,218.163431 124.836569,211 116,211 C107.163431,211 100,218.163431 100,227 L100,227 Z M104,227 C104,220.372569 109.372569,215 116,215 C122.627431,215 128,220.372569 128,227 C128,233.627431 122.627431,239 116,239 C109.372569,239 104,233.627431 104,227 L104,227 Z" id="Shape"></path>
                <path d="M171,297 C171,305.836569 178.163431,313 187,313 C195.836569,313 203,305.836569 203,297 C203,288.163431 195.836569,281 187,281 C178.163431,281 171,288.163431 171,297 L171,297 Z M175,297 C175,290.372569 180.372569,285 187,285 C193.627431,285 199,290.372569 199,297 C199,303.627431 193.627431,309 187,309 C180.372569,309 175,303.627431 175,297 L175,297 Z" id="Shape"></path>
                <path d="M223,297 C223,305.836569 230.163431,313 239,313 C247.836569,313 255,305.836569 255,297 C255,288.163431 247.836569,281 239,281 C230.163431,281 223,288.163431 223,297 L223,297 Z M227,297 C227,290.372569 232.372569,285 239,285 C245.627431,285 251,290.372569 251,297 C251,303.627431 245.627431,309 239,309 C232.372569,309 227,303.627431 227,297 L227,297 Z" id="Shape"></path>
                <path d="M102,173 L41,173 L41,177 L102,177 L102,173 L102,173 Z" id="Shape"></path>
                <path d="M0,174.5 C0,186.374569 9.6254305,196 21.5,196 C33.3745695,196 43,186.374569 43,174.5 C43,162.625431 33.3745695,153 21.5,153 C9.6254305,153 0,162.625431 0,174.5 L0,174.5 Z M4,174.5 C4,164.834569 11.8345695,157 21.5,157 C31.1654305,157 39,164.834569 39,174.5 C39,184.165431 31.1654305,192 21.5,192 C11.8345695,192 4,184.165431 4,174.5 L4,174.5 Z" id="Shape"></path>
                <path d="M63,356.5 C63,368.374569 72.6254305,378 84.5,378 C96.3745695,378 106,368.374569 106,356.5 C106,344.625431 96.3745695,335 84.5,335 C72.6254305,335 63,344.625431 63,356.5 L63,356.5 Z M67,356.5 C67,346.834569 74.8345695,339 84.5,339 C94.1654305,339 102,346.834569 102,356.5 C102,366.165431 94.1654305,374 84.5,374 C74.8345695,374 67,366.165431 67,356.5 L67,356.5 Z" id="Shape"></path>
                <path d="M241.5,87.5 C232.663431,87.5 225.5,94.6634305 225.5,103.5 C225.5,112.336569 232.663431,119.5 241.5,119.5 C250.336569,119.5 257.5,112.336569 257.5,103.5 C257.5,94.6634305 250.336569,87.5 241.5,87.5 L241.5,87.5 Z M241.5,91.5 C248.127431,91.5 253.5,96.8725695 253.5,103.5 C253.5,110.127431 248.127431,115.5 241.5,115.5 C234.872569,115.5 229.5,110.127431 229.5,103.5 C229.5,96.8725695 234.872569,91.5 241.5,91.5 L241.5,91.5 Z" id="Shape"></path>
                <path d="M243.5001,89.5002 L243.5001,44.3332 L239.5001,44.3332 L239.5001,89.5002 L243.5001,89.5002 L243.5001,89.5002 Z" id="Shape"></path>
                <path d="M242,2.5 C230.125431,2.5 220.5,12.1254305 220.5,24 C220.5,35.8745695 230.125431,45.5 242,45.5 C253.874569,45.5 263.5,35.8745695 263.5,24 C263.5,12.1254305 253.874569,2.5 242,2.5 L242,2.5 Z M242,6.5 C251.665431,6.5 259.5,14.3345695 259.5,24 C259.5,33.6654305 251.665431,41.5 242,41.5 C232.334569,41.5 224.5,33.6654305 224.5,24 C224.5,14.3345695 232.334569,6.5 242,6.5 L242,6.5 Z" id="Shape"></path>
                <path d="M189.5,87.5 C180.663431,87.5 173.5,94.6634305 173.5,103.5 C173.5,112.336569 180.663431,119.5 189.5,119.5 C198.336569,119.5 205.5,112.336569 205.5,103.5 C205.5,94.6634305 198.336569,87.5 189.5,87.5 L189.5,87.5 Z M189.5,91.5 C196.127431,91.5 201.5,96.8725695 201.5,103.5 C201.5,110.127431 196.127431,115.5 189.5,115.5 C182.872569,115.5 177.5,110.127431 177.5,103.5 C177.5,96.8725695 182.872569,91.5 189.5,91.5 L189.5,91.5 Z" id="Shape"></path>
                <path d="M101,0.5 C89.1254305,0.5 79.5,10.1254305 79.5,22 C79.5,33.8745695 89.1254305,43.5 101,43.5 C112.874569,43.5 122.5,33.8745695 122.5,22 C122.5,10.1254305 112.874569,0.5 101,0.5 L101,0.5 Z M101,4.5 C110.665431,4.5 118.5,12.3345695 118.5,22 C118.5,31.6654305 110.665431,39.5 101,39.5 C91.3345695,39.5 83.5,31.6654305 83.5,22 C83.5,12.3345695 91.3345695,4.5 101,4.5 L101,4.5 Z" id="Shape"></path>
                <path d="M120.692322,22.9907316 C120.828479,22.9775776 121.100981,22.9536264 121.498459,22.9224413 C122.167415,22.8699567 122.938725,22.817349 123.800999,22.7681752 C130.816816,22.3680768 138.421166,22.4413126 145.534412,23.3130731 C154.733966,24.4405202 161.742892,26.7860432 165.626774,30.4540465 C170.669093,35.2160959 175.468699,46.3471371 179.316383,60.9066282 C182.358416,72.4175711 184.5,85.298595 184.5,90.667 L188.5,90.667 C188.5,84.8955037 186.306176,71.7002689 183.183617,59.8846218 C179.15326,44.6339002 174.128964,32.9817685 168.373226,27.5459535 C163.718327,23.1497896 155.994739,20.5651064 146.02099,19.3427781 C138.634258,18.4375007 130.80729,18.3621209 123.573257,18.7746638 C122.681938,18.825494 121.882306,18.8800333 121.18559,18.9346959 C120.763665,18.9677991 120.467277,18.9938498 120.307678,19.0092684 L120.692322,22.9907316 L120.692322,22.9907316 Z" id="Shape"></path>
                <path d="M330,230 L362,230 L361.41352,229.912078 L390.41352,238.807078 L391.58648,234.982922 L362.58648,226.087922 L362.299831,226 L362,226 L330,226 L330,230 L330,230 Z" id="Shape"></path>
                <path d="M30.5,374 C18.6254305,374 9,383.625431 9,395.5 C9,407.374569 18.6254305,417 30.5,417 C40.8974127,417 49.7426908,409.560901 51.6232928,399.44764 L47.6907072,398.71636 C46.1606535,406.944487 38.9604946,413 30.5,413 C20.8345695,413 13,405.165431 13,395.5 C13,385.834569 20.8345695,378 30.5,378 L30.5,374 L30.5,374 Z" id="Shape"></path>
                <path d="M103,225 L56.333,225 C41.4784305,225 29.333,237.145431 29.333,252 L29.333,375 C29.333,375.33198 29.341388,375.623464 29.3616352,376.123859 L29.4359565,377.960658 L31.2724983,378.041085 C40.6109269,378.450041 48,386.132338 48,395.5 C48,396.549753 47.8950707,397.616014 47.6906269,398.716792 L51.6233731,399.447208 C51.871136,398.113188 52,396.80371 52,395.5 C52,383.986963 42.9206931,374.547358 31.4475017,374.044915 L31.36,376.043 L33.3583648,375.962141 C33.3401743,375.512575 33.333,375.26327 33.333,375 L33.333,252 C33.333,239.354569 43.6875695,229 56.333,229 L103,229 L103,225 L103,225 Z" id="Shape"></path>
                <path d="M51.6233167,399.447112 C51.8710359,398.114474 52,396.803705 52,395.4996 L48,395.4996 C48,396.549689 47.8949896,397.616996 47.6906833,398.716088 L51.6233167,399.447112 L51.6233167,399.447112 Z" id="Shape"></path>
                <path d="M174,295 L109.333,295 C94.4784305,295 82.333,307.145431 82.333,322 L82.333,337 C82.3330712,337.06819 82.3330712,337.06819 82.3341437,337.135376 C82.3347173,337.175701 82.3347173,337.175701 82.3445968,337.30705 C82.3102186,337.375002 82.3102186,337.375002 82.7645671,338.34543 L83.0557856,338.644281 L84.3579218,339.106584 L85.6010911,338.654839 L85.9623149,338.26926 L86.0778977,338.087529 C86.2689187,337.642876 86.2689187,337.642876 86.2908525,337.524788 C86.3399444,337.165585 86.3399444,337.165585 86.3369821,337.15359 C86.3379809,337.1397 86.3379809,337.1397 86.3362999,337.159202 C86.3504636,337.169118 86.3504636,337.169118 86.1685852,337.771573 C86.0658862,337.995048 86.0658862,337.995048 85.7024917,338.412362 C84.9304215,338.961839 84.9304215,338.961839 83.604555,338.793843 C82.471319,337.839765 82.471319,337.839765 82.443495,337.537556 C82.3704874,337.235425 82.3704874,337.235425 82.3659821,337.167171 C82.3600988,337.098025 82.3600988,337.098025 82.3616352,337.123859 L86.3583648,336.962141 C86.3546772,336.874032 86.3546772,336.874032 86.3436789,336.745356 C86.3366452,336.656083 86.3366452,336.656083 86.2611538,336.343621 C86.2320974,336.038069 86.2320974,336.038069 85.0976424,335.082955 C83.771169,334.914852 83.771169,334.914852 82.9984956,335.464752 C82.6344996,335.882747 82.6344996,335.882747 82.5312031,336.107406 C82.3446136,336.728067 82.3446136,336.728067 82.3543614,336.77951 C82.3484355,336.848312 82.3484355,336.848312 82.3455779,336.891496 C82.3355286,336.994106 82.3355286,336.994106 82.3796648,336.686569 C82.4013305,336.569621 82.4013305,336.569621 82.5530539,336.198443 L82.5920614,336.125657 L82.7075808,335.944027 L83.0687104,335.558543 L84.3117557,335.10685 L85.6137697,335.569103 C86.358805,336.837169 86.358805,336.837169 86.3239972,336.901622 C86.3330807,337.022286 86.3330807,337.022286 86.3330327,337.041108 C86.3331327,337.047588 86.3331327,337.047588 86.333,337 L86.333,322 C86.333,309.354569 96.6875695,299 109.333,299 L174,299 L174,295 L174,295 Z" id="Shape"></path>
                <path d="M328,374.5 C328,384.165431 320.165431,392 310.5,392 C300.834569,392 293,384.165431 293,374.5 C293,364.834569 300.834569,357 310.5,357 C320.165431,357 328,364.834569 328,374.5 L328,374.5 Z M332,374.5 C332,362.625431 322.374569,353 310.5,353 C298.625431,353 289,362.625431 289,374.5 C289,386.374569 298.625431,396 310.5,396 C322.374569,396 332,386.374569 332,374.5 L332,374.5 Z" id="Shape"></path>
                <path d="M254,299 L284.667,299 C297.312431,299 307.667,309.354569 307.667,322 L307.667,356 C307.666996,356.003793 307.666996,356.003793 307.667023,355.994405 L307.691092,355.69505 C311.666982,355.997033 311.666982,355.997033 311.666988,355.998781 C311.66699,355.999742 311.66699,355.999742 311.666988,355.998867 C311.666979,355.991295 311.666979,355.991295 311.666961,355.973563 C311.666918,355.924251 311.666918,355.924251 311.66685,355.839361 C311.666678,355.618242 311.666678,355.618242 311.666413,355.270066 C311.665749,354.397845 311.665749,354.397845 311.664749,353.134824 C311.662893,350.826424 311.660912,348.608558 311.658747,346.51948 C311.655923,343.793148 311.653037,341.54012 311.650121,339.90418 C311.648458,338.971318 311.646806,338.252233 311.645168,337.76569 C311.644298,337.507206 311.643432,337.314484 311.642562,337.188839 C311.641889,337.099596 311.641889,337.099596 311.64105,337.035721 C311.640674,337.00729 311.640674,337.00729 311.637968,336.937634 C311.63643,336.904381 311.63643,336.904381 311.62642,336.802183 C311.620238,336.754194 311.620238,336.754194 311.616001,336.726949 C311.589347,336.587484 311.589347,336.587484 311.567451,336.503281 L309.979733,335.067543 C307.624433,336.978304 307.624433,336.978304 307.641635,336.962141 L311.638365,337.123859 C311.655895,337.100808 311.655895,337.100808 311.504541,337.762902 L307.961286,338.125076 C307.691513,337.489749 307.691513,337.489749 307.679763,337.433316 C307.660705,337.323502 307.660705,337.323502 307.654563,337.275838 C307.644717,337.175311 307.644717,337.175311 307.643343,337.144916 C307.641291,337.092604 307.641291,337.092604 307.641568,337.100128 C307.642034,337.135621 307.642034,337.135621 307.642658,337.216531 C307.643487,337.336328 307.644335,337.52505 307.645191,337.779157 C307.64682,338.263122 307.648468,338.980389 307.650127,339.91131 C307.653041,341.546039 307.655926,343.798206 307.65875,346.523624 C307.660914,348.612351 307.662894,350.829924 307.66475,353.138041 C307.66575,354.400936 307.66575,354.400936 307.666415,355.273109 C307.666679,355.621286 307.666679,355.621286 307.666851,355.842526 C307.666919,355.927528 307.666919,355.927528 307.666963,355.977282 C307.66698,355.995345 307.66698,355.995345 307.666993,356.004947 C307.666996,356.006887 307.666996,356.006887 307.667002,356.009474 C307.667009,356.011813 307.667009,356.011813 307.667019,356.014035 L311.642902,356.314078 C311.667004,356.00319 311.667004,356.00319 311.667,356 L311.667,322 C311.667,307.145431 299.521569,295 284.667,295 L254,295 L254,299 L254,299 Z" id="Shape"></path>
            </g>
        </g>
    </g>
</svg>