<?xml version="1.0" encoding="UTF-8" standalone="no"?>
<svg width="356px" height="135px" viewBox="0 0 356 135" version="1.1" xmlns="http://www.w3.org/2000/svg" xmlns:xlink="http://www.w3.org/1999/xlink" xmlns:sketch="http://www.bohemiancoding.com/sketch/ns">
    <!-- Generator: Sketch 3.3.2 (12043) - http://www.bohemiancoding.com/sketch -->
    <title>Untitled 4</title>
    <desc>Created with Sketch.</desc>
    <defs></defs>
    <g id="Page-1" stroke="none" stroke-width="1" fill="none" fill-rule="evenodd" sketch:type="MSPage">
        <g id="Vector-Smart-Object" sketch:type="MSLayerGroup" fill="#020302">
            <path d="M332.172,131 L2,131 L4,133 L4,2.507 L2,4.507 L332.172,4.507 L330.172,2.507 L330.172,133 L332.172,131 L332.172,131 Z M332.172,135 L334.172,135 L334.172,133 L334.172,2.507 L334.172,0.507 L332.172,0.507 L2,0.507 L0,0.507 L0,2.507 L0,133 L0,135 L2,135 L332.172,135 L332.172,135 Z" id="Shape" sketch:type="MSShapeGroup"></path>
            <path d="M346.7636,94.4913 L335.6406,94.4913 C335.168632,94.4913 334.734458,94.5076685 334.309029,94.537871 C334.143331,94.5496344 333.984447,94.5630549 333.813944,94.5791773 C333.714544,94.5885763 333.606946,94.5993199 333.446024,94.6154538 C333.298729,94.6299427 333.234778,94.6339433 333.275595,94.6362011 C333.667381,94.6578727 334.10989,94.8158653 334.504009,95.2642169 C334.706153,95.4941765 334.831776,95.743525 334.899526,95.9890406 C334.934697,96.1164923 334.947467,96.2123369 334.950795,96.2899783 C334.950465,96.2822851 334.95512,96.1857175 334.970952,95.9770768 C334.985266,95.7919887 334.994514,95.6719499 335.002586,95.5613253 C335.016332,95.3729186 335.027733,95.1980143 335.037706,95.0159855 C335.063257,94.5496085 335.0771,94.0738516 335.0771,93.5558 L335.0771,42.9258 C335.0771,42.6880482 335.076122,42.4587179 335.074171,42.1728857 C335.071691,41.8359701 335.070505,41.6726485 335.069835,41.5389566 C335.067692,41.1118002 335.070405,40.8503308 335.080002,40.6472568 C335.087784,40.4826169 335.098846,40.3894793 335.103518,40.370603 C335.072911,40.4942653 334.994475,40.6595987 334.841315,40.8339105 C334.664706,41.0349099 334.456348,41.1629474 334.269906,41.2227266 C334.228745,41.2359241 334.259639,41.2311695 334.354056,41.225384 C334.513052,41.2156414 334.730537,41.2127082 335.091372,41.2150387 C335.207877,41.2157912 335.35,41.2171229 335.646862,41.2199457 C335.900017,41.2221791 336.103369,41.2233 336.3146,41.2233 L346.7636,41.2233 C349.227078,41.2233 351.3711,43.6636776 351.3711,46.7618 L351.3711,88.9528 C351.3711,92.0515416 349.227429,94.4913 346.7636,94.4913 L346.7636,94.4913 Z M346.7636,98.7583 C351.715703,98.7583 355.6381,94.2941358 355.6381,88.9528 L355.6381,46.7618 C355.6381,41.4211554 351.715449,36.9563 346.7636,36.9563 L336.3146,36.9563 C336.117796,36.9563 335.926157,36.9552436 335.684504,36.9531118 C335.392441,36.9503301 335.242719,36.9489272 335.11893,36.9481277 C334.667869,36.9452145 334.3736,36.9491832 334.093081,36.9663722 C333.060674,37.029634 332.285417,37.2782061 331.635885,38.0174395 C331.04457,38.6904164 330.866774,39.4087617 330.81776,40.445812 C330.803723,40.7428121 330.800397,41.0635148 330.802889,41.5603582 C330.803587,41.6996584 330.804815,41.8688355 330.80727,42.2020146 C330.809161,42.4789456 330.8101,42.6992088 330.8101,42.9258 L330.8101,93.5558 C330.8101,94.3242226 330.791898,94.6564575 330.716185,95.6542107 C330.687083,96.0377195 330.677546,96.2355835 330.68771,96.4727077 C330.712754,97.0570013 330.856448,97.5777169 331.299191,98.0813831 C331.795885,98.6464244 332.397263,98.8611391 333.039926,98.896688 C333.295873,98.9108458 333.490562,98.8986668 333.863738,98.8619587 C334.718409,98.7778876 334.994319,98.7583 335.6406,98.7583 L346.7636,98.7583 L346.7636,98.7583 Z" id="Shape" sketch:type="MSShapeGroup"></path>
        </g>
    </g>
</svg>