<?xml version="1.0" encoding="UTF-8" standalone="no"?>
<svg width="612px" height="612px" viewBox="0 0 612 612" version="1.1" xmlns="http://www.w3.org/2000/svg" xmlns:xlink="http://www.w3.org/1999/xlink" xmlns:sketch="http://www.bohemiancoding.com/sketch/ns">
    <!-- Generator: Sketch 3.3.2 (12043) - http://www.bohemiancoding.com/sketch -->
    <title>Vector Smart Object</title>
    <desc>Created with Sketch.</desc>
    <defs></defs>
    <g id="Page-1" stroke="none" stroke-width="1" fill="none" fill-rule="evenodd" sketch:type="MSPage">
        <g id="Vector-Smart-Object" sketch:type="MSLayerGroup" fill="#000000">
            <path d="M0,0 L0,612 L159.12,612 L159.12,159.12 L612,159.12 L612,0 L0,0 Z M24.48,26.316 L585.684,26.316 L585.684,134.028 L586.296,134.028 L542.232,134.028 L542.232,60.588 L516.528,60.588 L516.528,134.028 L471.852,134.028 L471.852,100.368 L459,100.368 L459,134.028 L414.324,134.028 L414.324,60.588 L388.62,60.588 L388.62,134.028 L343.944,134.028 L343.944,100.368 L331.092,100.368 L331.092,134.028 L286.416,134.028 L286.416,60.588 L260.712,60.588 L260.712,134.028 L216.036,134.028 L216.036,100.368 L203.184,100.368 L203.184,134.028 L158.508,134.028 L158.508,60.588 L132.804,60.588 L132.804,134.028 L59.364,134.028 L59.364,159.732 L132.804,159.732 L132.804,204.408 L96.084,204.408 L96.084,217.26 L132.804,217.26 L132.804,261.936 L59.364,261.936 L59.364,287.64 L132.804,287.64 L132.804,332.316 L96.084,332.316 L96.084,345.168 L132.804,345.168 L132.804,389.844 L59.364,389.844 L59.364,415.548 L132.804,415.548 L132.804,460.224 L96.084,460.224 L96.084,473.076 L132.804,473.076 L132.804,517.752 L59.364,517.752 L59.364,543.456 L132.804,543.456 L132.804,587.52 L24.48,587.52 L24.48,26.316 Z" sketch:type="MSShapeGroup"></path>
        </g>
    </g>
</svg>